PathFileType	4	(X/Y/Z)	29_1_15_p1_0-237.trc
DataRate	CameraRate	NumFrames	NumMarkers	Units	OrigDataRate	OrigDataStartFrame	OrigNumFrames
60.0	60.0	6	27	m	60.0	29	238
Frame#	Time	RHip			RKnee			RAnkle			RBigToe			RSmallToe			RHeel			LHip			LKnee			LAnkle			LBigToe			LSmallToe			LHeel			Neck			Head			Nose			RShoulder			RElbow			RWrist			RThumb			RIndex			RPinky			LShoulder			LElbow			LWrist			LThumb			LIndex			LPinky			
		X1	Y1	Z1	X2	Y2	Z2	X3	Y3	Z3	X4	Y4	Z4	X5	Y5	Z5	X6	Y6	Z6	X7	Y7	Z7	X8	Y8	Z8	X9	Y9	Z9	X10	Y10	Z10	X11	Y11	Z11	X12	Y12	Z12	X13	Y13	Z13	X14	Y14	Z14	X15	Y15	Z15	X16	Y16	Z16	X17	Y17	Z17	X18	Y18	Z18	X19	Y19	Z19	X20	Y20	Z20	X21	Y21	Z21	X22	Y22	Z22	X23	Y23	Z23	X24	Y24	Z24	X25	Y25	Z25	X26	Y26	Z26	X27	Y27	Z27	
29	0.48333333333333334	0.3482731885994566	0.5897519077320281	0.908457261863434	0.32256679215536815	0.6855817654094426	1.337418599394622	0.30122068804698177	0.7931809324603871	1.7401875586343378	0.2897170310714506	0.6168429169875638	1.7702066995577674	0.3476298193661935	0.6138322649406922	1.7514893504430704	0.271186459711511	0.9027155427318001	1.8031630497245177	0.13627635288319143	0.5985307576111571	0.912029526705472	0.1161309949509286	0.6723315922311305	1.3050468749399549	0.09989806587239954	0.7827211535840882	1.7319750491414254	0.12038010435099902	0.5636930351890426	1.730802583488955	0.06303205994652082	0.6192423748924603	1.730820470694409	0.12332990797954632	0.8328078847128397	1.7666548456450384	0.2777080120833014	0.49109257797090966	0.3140745371085579	0.3140665166653654	0.39883651349880034	0.07249461593453432	0.28260814539774726	0.3265445042346014	0.20574990206699245	0.41873362410607634	0.46706305472868387	0.42992753545421153	0.4528107183047632	0.4685923449836613	0.6783602127894792	0.31447968083075295	0.37678743946190213	0.8610550944593601	0.2248976070022669	0.34931388056570917	0.923263967808141	0.2180200679109051	0.4204819078510451	0.9513339848919071	0.22747049876563274	0.4540524787974587	0.9695647277376591	0.12684299829808385	0.5005164293579357	0.41663066277233024	0.08386484551028035	0.4532514745751653	0.6630287668792384	0.1840512867365489	0.36914197027238854	0.8389968029297495	0.27140599514553576	0.3691787510542682	0.9046883326828399	0.27209111472900016	0.3793906444474988	0.9218636610849426	0.23086480612907131	0.4079809036004831	0.9512456913058627
30	0.5	0.34828173086353925	0.5898028261970775	0.9085342229873267	0.3225990205363038	0.685768533338039	1.3374021254615278	0.3012451036755522	0.7933892946768496	1.7402991123166829	0.2897543279322919	0.616333058798349	1.7699519035882447	0.35092223921742055	0.6277051057119528	1.7571804490855818	0.2714170179322069	0.9013772199371649	1.8070955963198643	0.13632299827571834	0.5985063608749245	0.9119959199040132	0.11616325138003393	0.6723749332167918	1.3047966003186893	0.10069499747491484	0.7787143790350524	1.7213910095355018	0.12037799603185663	0.5637505620464283	1.7308486455175265	0.0630026593785493	0.6191051160012252	1.730759164618283	0.11719628782764306	0.8498612186025559	1.773488002543784	0.2777171895497558	0.4911487998084818	0.31404792880504984	0.3140794384031409	0.3987001073490594	0.0724335986399892	0.2826337359126368	0.32644689090746415	0.2057631301971527	0.41872799331594285	0.46721617319151376	0.42996241774672284	0.45303939727145603	0.4702482765121983	0.6822455645009012	0.314403862122046	0.3767362835399701	0.8610811003888841	0.22489776713416298	0.3489163771488637	0.9232285136646202	0.2147292467434168	0.40840670665563267	0.9525248678730974	0.2274616372420075	0.4539924081078692	0.9696208963730188	0.130988137461605	0.5026007509270373	0.4167046694414716	0.08383488629557796	0.4531954965180044	0.663191180928877	0.18403762648505312	0.36921491875351015	0.8390583858722287	0.26634229405695237	0.38234358583205197	0.9068290882425838	0.26261791406818014	0.39217170866144474	0.9275748790163859	0.23091957394182508	0.4082473692247236	0.9513789895291455
31	0.5166666666666667	0.3482629298634277	0.589830234542648	0.9085196443385386	0.32424489052158983	0.6867833832198732	1.3377363942812777	0.3011969225651868	0.7931121609569036	1.7401664528641474	0.28985273863377514	0.6168973417829159	1.7702864777158847	0.3478394942613152	0.6141557335917468	1.7516428582248544	0.2713559194264664	0.9014692996790208	1.807347448936543	0.13628922736183766	0.5985029078872682	0.9120541549683642	0.11613596084626734	0.6723123871554298	1.3050697851502795	0.09919859326352841	0.7799287420563366	1.7260795241502402	0.12037135018910952	0.5638106218650071	1.7311189966061933	0.06299521768935862	0.6194420012944071	1.731120412520415	0.11727609787643112	0.8498892578340017	1.7734727575546814	0.277685697001414	0.49114893405316445	0.31402219376013407	0.3140771543239042	0.3988175608805056	0.07253894570893307	0.28264832145171215	0.32653669856755635	0.20576718498871785	0.4187430489604431	0.4671364097291413	0.42983735549202684	0.45299538301818376	0.47035628733992463	0.6821622864502606	0.3144285051822972	0.37680031977458883	0.8611024902789449	0.22767165945543447	0.36274023074261086	0.9255476736458031	0.22260890868721606	0.4063447641425087	0.9446091548322892	0.22736476986320447	0.4537065336822529	0.9694411160309854	0.13086890365845397	0.5028123248716695	0.41298456818003987	0.08381576464783205	0.4532337675484816	0.6632141937922104	0.1840189543403546	0.36921179798185655	0.8390973115421778	0.26651768489614214	0.3820440989302386	0.9065631276313035	0.2743649061158387	0.39100407911728213	0.9233205860631432	0.23110941426884604	0.40994608766278207	0.9550643108115742
32	0.5333333333333333	0.3519366088563699	0.6034108473879806	0.9105231769561336	0.3280691323274726	0.6732715180226474	1.3382066700761925	0.30122122922203737	0.7932663060532625	1.7402306437149966	0.2897200664592585	0.6167207999584761	1.7701061651468128	0.34758328839461244	0.6136474666481935	1.7513929590537973	0.27136700875991204	0.9014323005441917	1.8069563529218844	0.13629932431045558	0.5985254628067325	0.9119993980031023	0.11505335909391905	0.6735587346341204	1.309210315149531	0.09972795435093282	0.7826692563973248	1.7320133778908486	0.11836071602368005	0.5507743238588695	1.725577615825085	0.06285659742072527	0.6193711533061356	1.731038562213729	0.11704435213403329	0.8509134997648647	1.7693009145290888	0.2777336707460683	0.4911383253773637	0.3140318663320039	0.3140782983662467	0.39893370705808523	0.07260460417991342	0.2825224182340938	0.32680715653647374	0.20570201637078336	0.41877108481023556	0.46717831381193176	0.4298795823372699	0.4530012472899049	0.4704563496714338	0.6821521966152333	0.31471659810386887	0.37865639688891245	0.8648286719150713	0.22513056689204802	0.3487725521134824	0.9232109125190566	0.2202276225837496	0.3954395147702211	0.9470349734222805	0.22736678556276593	0.4538379375377343	0.9694417961870226	0.1309154701980084	0.5028749595404525	0.41300111227735303	0.08381416698072111	0.4532618481690399	0.6632497968284101	0.18399579986794815	0.3692994381948067	0.8391062446544144	0.26634995834315783	0.38206168527687573	0.906595583943813	0.2693423919656533	0.39135304116284625	0.9266293273340421	0.231058782011041	0.41010959151460774	0.9550993400786991
33	0.55	0.34827250998730125	0.5897039711152338	0.9085959726656138	0.32803895825545115	0.6730015373120213	1.3381455544324998	0.3012315531670935	0.7934270889523282	1.7402658678465563	0.28962209981109904	0.6163860337936727	1.7700063891514926	0.34319572207363097	0.6126891541998597	1.7510549283175867	0.27135364667907796	0.9015565523276604	1.8068502260646904	0.13629540400152226	0.5983917187481981	0.9120522699725075	0.11503802700335619	0.6735708914033389	1.3093298557254622	0.09970518218842099	0.7827377891207821	1.7320391201151326	0.12027802162644215	0.5639605105915958	1.7311439518451686	0.05681944893541569	0.6336841269452493	1.7369892361744126	0.1170005935619709	0.8507195307079045	1.7692285131718386	0.2777002827536806	0.4911393561975246	0.3139927641787427	0.31407791716198813	0.39892185710266304	0.0725490339580019	0.282550479285133	0.32677225093244067	0.20574868761873527	0.41910686113825874	0.46661311901678115	0.4265195722167751	0.45292251412665396	0.47035848591736495	0.6820964889881552	0.3144454201841409	0.37686923628658825	0.8611016532574348	0.2253102416189309	0.34968027847944355	0.9235357778891594	0.2229128754394642	0.4080392011541199	0.949064541952818	0.2273717892336166	0.45382446615745264	0.9693373998425783	0.12683164503489613	0.5007606489720716	0.4166184942340189	0.083779203760051	0.45306435041775606	0.6634469557506422	0.18397676199996468	0.36933131778068984	0.839208232842176	0.26624414750380787	0.3824576262906224	0.9066959152943221	0.26487835883702116	0.40383830465915177	0.9289790199051826	0.2310081072635788	0.4105073343904012	0.9552680576613056
34	0.5666666666666667	0.35197489594080983	0.6034406706719413	0.910486958281477	0.33326927252624333	0.6734778058937699	1.33399799249829	0.30125896284974274	0.793447831228596	1.7403019717334134	0.28964469259491676	0.616257603314631	1.7699390339953904	0.35082820835852757	0.6275801403720321	1.7571151758369454	0.2713715865206266	0.9014536928170359	1.8068919531067325	0.13637688840516773	0.5986559305047179	0.9119925586428883	0.1150564848079912	0.6737444965672349	1.3094789659440005	0.099732456534137	0.7825963775666568	1.7319932935556708	0.12033980118617833	0.5638972005512412	1.7311028551889482	0.0629329829650496	0.6191940117623728	1.7309316565928838	0.11567012239844361	0.8516161658488608	1.7740126586601208	0.2777254049539503	0.4910917420816783	0.3140680486386586	0.3140790519763222	0.3989517544035504	0.07255253689892728	0.2825535742329945	0.3271363925610646	0.20557380852099177	0.4187330128820055	0.46714952734345755	0.4297627149640604	0.4526662977931271	0.4685253962830067	0.678240813931045	0.3147683198602098	0.3787328812431576	0.8648212259492856	0.225162012523873	0.3493172354658859	0.9233264571107771	0.22277026992634305	0.40814158558656566	0.9491862683001359	0.22734849914305036	0.4538777561569307	0.9693978763171072	0.12684051579284542	0.5006835355577437	0.4165812972880602	0.08443407946748974	0.45268606859144017	0.6596821683805308	0.18397922648028966	0.36940357710069555	0.8390607079676619	0.2663207757348976	0.3819453042449029	0.9065562766589115	0.27011960044959143	0.39094480276918775	0.9235168527519491	0.2307413069504603	0.4085204536725754	0.9515095896749383
